<svg width="33" height="32" viewBox="0 0 33 32" fill="none" xmlns="http://www.w3.org/2000/svg">
<path d="M30.5446 0H3.10889C1.85175 0 0.830322 1.03571 0.830322 2.30714V29.6929C0.830322 30.9643 1.85175 32 3.10889 32H30.5446C31.8018 32 32.8303 30.9643 32.8303 29.6929V2.30714C32.8303 1.03571 31.8018 0 30.5446 0ZM10.5018 27.4286H5.75889V12.1571H10.5089V27.4286H10.5018ZM8.13032 10.0714C6.60889 10.0714 5.38032 8.83571 5.38032 7.32143C5.38032 5.80714 6.60889 4.57143 8.13032 4.57143C9.64461 4.57143 10.8803 5.80714 10.8803 7.32143C10.8803 8.84286 9.65175 10.0714 8.13032 10.0714ZM28.2803 27.4286H23.5375V20C23.5375 18.2286 23.5018 15.95 21.0732 15.95C18.6018 15.95 18.2232 17.8786 18.2232 19.8714V27.4286H13.4803V12.1571H18.0303V14.2429H18.0946C18.7303 13.0429 20.2803 11.7786 22.5875 11.7786C27.3875 11.7786 28.2803 14.9429 28.2803 19.0571V27.4286Z" fill="#2F9DFF"/>
</svg>
