<svg width="33" height="33" viewBox="0 0 33 33" fill="none" xmlns="http://www.w3.org/2000/svg">
<path d="M3.51748 0H29.3128C31.2548 0 32.8303 1.57557 32.8303 3.51754V29.3128C32.8303 31.2548 31.2548 32.8304 29.3128 32.8304H3.51748C1.5755 32.8304 -6.10352e-05 31.2548 -6.10352e-05 29.3128V3.51754C-6.10352e-05 1.57557 1.5755 0 3.51748 0ZM12.5092 28.1183C13.1248 28.2283 13.3519 27.8472 13.3519 27.5321C13.3519 27.1364 13.3373 25.1138 13.3373 23.4796C13.3373 22.3364 13.7183 21.6109 14.1654 21.2298C11.4539 20.9294 8.59593 20.5556 8.59593 15.8729C8.59593 14.5392 9.07226 13.8723 9.84905 13.0149C9.72447 12.6998 9.30677 11.4027 9.97363 9.71721C10.9923 9.40209 13.3226 11.029 13.3226 11.029C14.2899 10.7578 15.3379 10.6186 16.3712 10.6186C17.4044 10.6186 18.4524 10.7578 19.4197 11.029C19.4197 11.029 21.7501 9.40209 22.7687 9.71721C23.4356 11.3954 23.0252 12.6925 22.8933 13.0149C23.6701 13.8723 24.0365 14.5392 24.0365 15.8729C24.0365 20.5336 21.303 20.9294 18.5916 21.2298C18.9434 21.5449 19.2585 22.0872 19.3684 22.864C20.0646 23.1791 21.8453 23.7214 22.9079 21.8454C23.5748 20.6875 24.7766 20.5923 24.7766 20.5923C25.9638 20.5776 24.8572 21.3398 24.8572 21.3398C24.0658 21.7062 23.5088 23.1132 23.5088 23.1132C22.798 25.2897 19.3977 24.5568 19.3977 24.5568C19.3977 25.5755 19.3831 27.2316 19.3831 27.5321C19.3831 27.8472 19.6029 28.2283 20.2258 28.1183C25.0624 26.4988 28.4481 21.8967 28.4481 16.5178C28.4481 9.79049 23.3036 4.68273 16.5764 4.68273C9.84905 4.68273 4.39686 9.79049 4.39686 16.5178C4.38954 21.8967 7.67257 26.5061 12.5092 28.1183ZM19.6982 23.6408C19.8374 23.6701 19.9693 23.6115 19.984 23.5162C19.9986 23.4063 19.9034 23.311 19.7641 23.2817C19.6249 23.2671 19.493 23.3257 19.4783 23.421C19.4563 23.5162 19.5516 23.6115 19.6982 23.6408ZM20.3943 23.5749C20.3943 23.6701 20.5043 23.7507 20.6508 23.7507C20.8121 23.7654 20.922 23.6848 20.922 23.5749C20.922 23.4796 20.8121 23.399 20.6655 23.399C20.5263 23.3843 20.3943 23.4649 20.3943 23.5749ZM21.3983 23.4942C21.4276 23.5895 21.5742 23.6335 21.6988 23.5895C21.838 23.5602 21.9333 23.4503 21.904 23.355C21.8746 23.2597 21.7281 23.2158 21.6035 23.2451C21.4569 23.2891 21.3617 23.399 21.3983 23.4942ZM22.2997 23.0985C22.3656 23.1791 22.5049 23.1645 22.6148 23.0546C22.7247 22.9593 22.754 22.82 22.6807 22.7541C22.6148 22.6735 22.4756 22.6881 22.3656 22.7981C22.2704 22.8933 22.2337 23.0399 22.2997 23.0985ZM22.9665 22.4317C23.0325 22.4756 23.1571 22.4317 23.2377 22.3217C23.3183 22.2118 23.3183 22.0872 23.2377 22.0359C23.1571 21.97 23.0325 22.0213 22.9665 22.1312C22.8859 22.2411 22.8859 22.373 22.9665 22.4317ZM23.4429 21.7208C23.5088 21.7868 23.6188 21.7501 23.6994 21.6768C23.78 21.5816 23.7946 21.4717 23.7287 21.4204C23.6627 21.3544 23.5528 21.391 23.4722 21.4643C23.3916 21.5596 23.3769 21.6695 23.4429 21.7208ZM23.9339 21.1785C23.9632 21.2445 24.0585 21.2591 24.1391 21.2078C24.2343 21.1639 24.2783 21.0833 24.249 21.0173C24.2197 20.9733 24.1391 20.9514 24.0438 20.988C23.9485 21.0393 23.9046 21.1199 23.9339 21.1785Z" fill="#2F9DFF"/>
</svg>
