<svg width="43" height="32" viewBox="0 0 43 32" fill="none" xmlns="http://www.w3.org/2000/svg">
<path d="M41.5208 10.5667C41.8431 10.3083 42.3226 10.55 42.3226 10.9583V28C42.3226 30.2083 40.5454 32 38.3548 32H3.96774C1.77722 32 0 30.2083 0 28V10.9667C0 10.55 0.471169 10.3167 0.801815 10.575C2.65343 12.025 5.10847 13.8667 13.5399 20.0417C15.2841 21.325 18.2268 24.025 21.1613 24.0083C24.1123 24.0333 27.1129 21.275 28.7909 20.0417C37.2224 13.8667 39.6692 12.0167 41.5208 10.5667ZM21.1613 21.3333C23.079 21.3667 25.8399 18.9 27.2286 17.8833C38.1978 9.85833 39.0327 9.15833 41.5621 7.15833C42.0415 6.78333 42.3226 6.2 42.3226 5.58333V4C42.3226 1.79167 40.5454 0 38.3548 0H3.96774C1.77722 0 0 1.79167 0 4V5.58333C0 6.2 0.281048 6.775 0.760484 7.15833C3.28992 9.15 4.1248 9.85833 15.094 17.8833C16.4827 18.9 19.2435 21.3667 21.1613 21.3333Z" fill="#2F9DFF"/>
</svg>
