<svg width="32" height="32" viewBox="0 0 32 32" fill="none" xmlns="http://www.w3.org/2000/svg">
<path d="M27.8746 0H3.34495C2.45781 0 1.60701 0.361224 0.979712 1.00421C0.352413 1.64719 0 2.51926 0 3.42857L0 28.5714C0 29.4807 0.352413 30.3528 0.979712 30.9958C1.60701 31.6388 2.45781 32 3.34495 32H27.8746C28.7617 32 29.6125 31.6388 30.2398 30.9958C30.8671 30.3528 31.2195 29.4807 31.2195 28.5714V3.42857C31.2195 2.51926 30.8671 1.64719 30.2398 1.00421C29.6125 0.361224 28.7617 0 27.8746 0ZM26.7324 21.955L25.6871 26.5979C25.634 26.8339 25.5044 27.0445 25.3195 27.1954C25.1346 27.3463 24.9053 27.4285 24.669 27.4286C13.5192 27.4286 4.45993 18.1636 4.45993 6.71429C4.46822 6.47433 4.55144 6.24343 4.69733 6.05557C4.84323 5.86771 5.0441 5.73281 5.27038 5.67071L9.8 4.59929C9.87727 4.58254 9.95589 4.57321 10.0348 4.57143C10.237 4.58189 10.4327 4.64762 10.6017 4.76179C10.7707 4.87597 10.9068 5.03442 10.9958 5.22071L13.0864 10.2207C13.1376 10.3555 13.1661 10.4983 13.1707 10.6429C13.1537 10.96 13.0161 11.2577 12.7875 11.4721L10.147 13.6864C11.7469 17.1621 14.476 19.9594 17.8669 21.5993L20.0272 18.8929C20.2364 18.6585 20.5268 18.5174 20.8362 18.5C20.9773 18.5047 21.1166 18.5339 21.2481 18.5864L26.1261 20.7293C26.308 20.8205 26.4626 20.9599 26.574 21.1331C26.6855 21.3064 26.7495 21.5071 26.7596 21.7143C26.7582 21.7952 26.7491 21.8759 26.7324 21.955Z" fill="#2F9DFF"/>
</svg>
